solid GTS-Storms-v12-floor0
   facet normal 0.000000e+00 -0.000000e+00 1.000000e+00
      outer loop
         vertex 4.400569e+00 -1.524000e+00 -7.620000e-02
         vertex 4.400569e+00 -1.066800e+00 -7.620000e-02
         vertex -4.362431e+00 -1.066800e+00 -7.620000e-02
      endloop
   endfacet
   facet normal 0.000000e+00 -0.000000e+00 1.000000e+00
      outer loop
         vertex 4.400569e+00 1.066800e+00 -7.620000e-02
         vertex 4.400569e+00 1.524000e+00 -7.620000e-02
         vertex -4.362431e+00 1.066800e+00 -7.620000e-02
      endloop
   endfacet
   facet normal 0.000000e+00 -0.000000e+00 1.000000e+00
      outer loop
         vertex -4.362431e+00 1.066800e+00 -7.620000e-02
         vertex 4.400569e+00 1.524000e+00 -7.620000e-02
         vertex -7.334231e+00 1.524000e+00 -7.620000e-02
      endloop
   endfacet
   facet normal 0.000000e+00 0.000000e+00 1.000000e+00
      outer loop
         vertex -4.362431e+00 1.066800e+00 -7.620000e-02
         vertex -7.334231e+00 1.524000e+00 -7.620000e-02
         vertex -4.362431e+00 -1.066800e+00 -7.620000e-02
      endloop
   endfacet
   facet normal 0.000000e+00 0.000000e+00 1.000000e+00
      outer loop
         vertex -4.362431e+00 -1.066800e+00 -7.620000e-02
         vertex -7.334231e+00 1.524000e+00 -7.620000e-02
         vertex -7.334231e+00 -1.524000e+00 -7.620000e-02
      endloop
   endfacet
   facet normal 0.000000e+00 0.000000e+00 1.000000e+00
      outer loop
         vertex -4.362431e+00 -1.066800e+00 -7.620000e-02
         vertex -7.334231e+00 -1.524000e+00 -7.620000e-02
         vertex 4.400569e+00 -1.524000e+00 -7.620000e-02
      endloop
   endfacet
endsolid