solid GTS-Storms-v15-top
   facet normal 0.000000e+00 -0.000000e+00 1.000000e+00
      outer loop
         vertex 4.40056905e+00 -1.524000e+00 2.057400e+00
         vertex 4.40056905e+00 1.524000e+00 2.057400e+00
         vertex -7.33423095e+00 -1.524000e+00 2.057400e+00
      endloop
   endfacet
   facet normal 0.000000e+00 0.000000e+00 1.000000e+00
      outer loop
         vertex -7.33423095e+00 -1.524000e+00 2.057400e+00
         vertex 4.40056905e+00 1.524000e+00 2.057400e+00
         vertex -7.33423095e+00 1.524000e+00 2.057400e+00
      endloop
   endfacet
endsolid
