solid GTS-Storms-v12-floor0
   facet normal 0.000000e+00 0.000000e+00 1.000000e+00
      outer loop
         vertex -1.369695e-01 -5.438775e-02 -7.620000e-02
         vertex -1.369695e-01 -1.496377e-01 -7.620000e-02
         vertex 4.40056905e+00 -1.524000e+00 -7.620000e-02
      endloop
   endfacet
   facet normal 0.000000e+00 0.000000e+00 1.000000e+00
      outer loop
         vertex 4.40056905e+00 -1.524000e+00 -7.620000e-02
         vertex -1.369695e-01 -1.496377e-01 -7.620000e-02
         vertex -2.322195e-01 -1.496377e-01 -7.620000e-02
      endloop
   endfacet
   facet normal 0.000000e+00 0.000000e+00 1.000000e+00
      outer loop
         vertex 4.40056905e+00 -1.524000e+00 -7.620000e-02
         vertex -2.322195e-01 -1.496377e-01 -7.620000e-02
         vertex -7.33423095e+00 -1.524000e+00 -7.620000e-02
      endloop
   endfacet
   facet normal 0.000000e+00 0.000000e+00 1.000000e+00
      outer loop
         vertex -7.33423095e+00 -1.524000e+00 -7.620000e-02
         vertex -2.322195e-01 -1.496377e-01 -7.620000e-02
         vertex -2.322195e-01 -5.438775e-02 -7.620000e-02
      endloop
   endfacet
   facet normal 0.000000e+00 0.000000e+00 1.000000e+00
      outer loop
         vertex 4.40056905e+00 1.524000e+00 -7.620000e-02
         vertex -1.369695e-01 1.496377e-01 -7.620000e-02
         vertex -1.369695e-01 5.438775e-02 -7.620000e-02
      endloop
   endfacet
   facet normal -0.000000e+00 0.000000e+00 1.000000e+00
      outer loop
         vertex -1.636395e+00 1.496377e-01 -7.620000e-02
         vertex -2.322195e-01 5.438775e-02 -7.620000e-02
         vertex -2.322195e-01 1.496377e-01 -7.620000e-02
      endloop
   endfacet
   facet normal 0.000000e+00 0.000000e+00 1.000000e+00
      outer loop
         vertex -1.731645e+00 -5.438775e-02 -7.620000e-02
         vertex -1.636395e+00 -5.438775e-02 -7.620000e-02
         vertex -1.636395e+00 5.438775e-02 -7.620000e-02
      endloop
   endfacet
   facet normal 0.000000e+00 -0.000000e+00 1.000000e+00
      outer loop
         vertex -1.731645e+00 5.438775e-02 -7.620000e-02
         vertex -1.731645e+00 1.496377e-01 -7.620000e-02
         vertex -7.33423095e+00 1.524000e+00 -7.620000e-02
      endloop
   endfacet
   facet normal 0.000000e+00 0.000000e+00 1.000000e+00
      outer loop
         vertex -7.33423095e+00 1.524000e+00 -7.620000e-02
         vertex -1.731645e+00 1.496377e-01 -7.620000e-02
         vertex -1.636395e+00 1.496377e-01 -7.620000e-02
      endloop
   endfacet
   facet normal -0.000000e+00 0.000000e+00 1.000000e+00
      outer loop
         vertex -7.33423095e+00 1.524000e+00 -7.620000e-02
         vertex -1.636395e+00 1.496377e-01 -7.620000e-02
         vertex 4.40056905e+00 1.524000e+00 -7.620000e-02
      endloop
   endfacet
   facet normal 0.000000e+00 0.000000e+00 1.000000e+00
      outer loop
         vertex 4.40056905e+00 1.524000e+00 -7.620000e-02
         vertex -1.636395e+00 1.496377e-01 -7.620000e-02
         vertex -2.322195e-01 1.496377e-01 -7.620000e-02
      endloop
   endfacet
   facet normal 0.000000e+00 0.000000e+00 1.000000e+00
      outer loop
         vertex 4.40056905e+00 1.524000e+00 -7.620000e-02
         vertex -2.322195e-01 1.496377e-01 -7.620000e-02
         vertex -1.369695e-01 1.496377e-01 -7.620000e-02
      endloop
   endfacet
   facet normal 0.000000e+00 0.000000e+00 1.000000e+00
      outer loop
         vertex -1.636395e+00 -1.496377e-01 -7.620000e-02
         vertex -1.369695e-01 5.438775e-02 -7.620000e-02
         vertex -1.636395e+00 -5.438775e-02 -7.620000e-02
      endloop
   endfacet
   facet normal 0.000000e+00 0.000000e+00 1.000000e+00
      outer loop
         vertex -1.636395e+00 -5.438775e-02 -7.620000e-02
         vertex -1.369695e-01 5.438775e-02 -7.620000e-02
         vertex -2.322195e-01 5.438775e-02 -7.620000e-02
      endloop
   endfacet
   facet normal 0.000000e+00 0.000000e+00 1.000000e+00
      outer loop
         vertex -1.636395e+00 -5.438775e-02 -7.620000e-02
         vertex -2.322195e-01 5.438775e-02 -7.620000e-02
         vertex -1.636395e+00 5.438775e-02 -7.620000e-02
      endloop
   endfacet
   facet normal 0.000000e+00 0.000000e+00 1.000000e+00
      outer loop
         vertex -1.636395e+00 5.438775e-02 -7.620000e-02
         vertex -2.322195e-01 5.438775e-02 -7.620000e-02
         vertex -1.636395e+00 1.496377e-01 -7.620000e-02
      endloop
   endfacet
   facet normal 0.000000e+00 0.000000e+00 1.000000e+00
      outer loop
         vertex -1.636395e+00 5.438775e-02 -7.620000e-02
         vertex -1.731645e+00 5.438775e-02 -7.620000e-02
         vertex -1.731645e+00 -5.438775e-02 -7.620000e-02
      endloop
   endfacet
   facet normal 0.000000e+00 -0.000000e+00 1.000000e+00
      outer loop
         vertex -1.731645e+00 -5.438775e-02 -7.620000e-02
         vertex -1.731645e+00 5.438775e-02 -7.620000e-02
         vertex -7.33423095e+00 1.524000e+00 -7.620000e-02
      endloop
   endfacet
   facet normal 0.000000e+00 0.000000e+00 1.000000e+00
      outer loop
         vertex -1.731645e+00 -5.438775e-02 -7.620000e-02
         vertex -7.33423095e+00 1.524000e+00 -7.620000e-02
         vertex -1.731645e+00 -1.496377e-01 -7.620000e-02
      endloop
   endfacet
   facet normal 0.000000e+00 0.000000e+00 1.000000e+00
      outer loop
         vertex -1.731645e+00 -1.496377e-01 -7.620000e-02
         vertex -7.33423095e+00 1.524000e+00 -7.620000e-02
         vertex -7.33423095e+00 -1.524000e+00 -7.620000e-02
      endloop
   endfacet
   facet normal -0.000000e+00 0.000000e+00 1.000000e+00
      outer loop
         vertex -1.731645e+00 -1.496377e-01 -7.620000e-02
         vertex -7.33423095e+00 -1.524000e+00 -7.620000e-02
         vertex -1.636395e+00 -1.496377e-01 -7.620000e-02
      endloop
   endfacet
   facet normal -0.000000e+00 0.000000e+00 1.000000e+00
      outer loop
         vertex -1.636395e+00 -1.496377e-01 -7.620000e-02
         vertex -7.33423095e+00 -1.524000e+00 -7.620000e-02
         vertex -2.322195e-01 -5.438775e-02 -7.620000e-02
      endloop
   endfacet
   facet normal 0.000000e+00 0.000000e+00 1.000000e+00
      outer loop
         vertex -1.636395e+00 -1.496377e-01 -7.620000e-02
         vertex -2.322195e-01 -5.438775e-02 -7.620000e-02
         vertex -1.369695e-01 5.438775e-02 -7.620000e-02
      endloop
   endfacet
   facet normal 0.000000e+00 0.000000e+00 1.000000e+00
      outer loop
         vertex -1.369695e-01 5.438775e-02 -7.620000e-02
         vertex -2.322195e-01 -5.438775e-02 -7.620000e-02
         vertex -1.369695e-01 -5.438775e-02 -7.620000e-02
      endloop
   endfacet
   facet normal -0.000000e+00 0.000000e+00 1.000000e+00
      outer loop
         vertex -1.369695e-01 5.438775e-02 -7.620000e-02
         vertex -1.369695e-01 -5.438775e-02 -7.620000e-02
         vertex 4.40056905e+00 1.524000e+00 -7.620000e-02
      endloop
   endfacet
   facet normal 0.000000e+00 0.000000e+00 1.000000e+00
      outer loop
         vertex 4.40056905e+00 1.524000e+00 -7.620000e-02
         vertex -1.369695e-01 -5.438775e-02 -7.620000e-02
         vertex 4.40056905e+00 -1.524000e+00 -7.620000e-02
      endloop
   endfacet
endsolid
